<svg width="2787" height="2663" xmlns="http://www.w3.org/2000/svg" xmlns:xlink="http://www.w3.org/1999/xlink" overflow="hidden"><defs><clipPath id="clip0"><rect x="2030" y="192" width="2787" height="2663"/></clipPath><clipPath id="clip1"><rect x="2032" y="197" width="2785" height="2658"/></clipPath><clipPath id="clip2"><rect x="2032" y="197" width="2785" height="2658"/></clipPath><clipPath id="clip3"><rect x="2032" y="197" width="2785" height="2658"/></clipPath><clipPath id="clip4"><rect x="2032" y="197" width="2785" height="2658"/></clipPath><clipPath id="clip5"><rect x="2032" y="197" width="2785" height="2658"/></clipPath><clipPath id="clip6"><rect x="2032" y="197" width="2785" height="2658"/></clipPath><clipPath id="clip7"><rect x="2032" y="197" width="2785" height="2658"/></clipPath><clipPath id="clip8"><rect x="2032" y="197" width="2785" height="2658"/></clipPath><clipPath id="clip9"><rect x="2032" y="197" width="2785" height="2658"/></clipPath><clipPath id="clip10"><rect x="2032" y="197" width="2785" height="2658"/></clipPath></defs><g clip-path="url(#clip0)" transform="translate(-2030 -192)"><rect x="2033" y="197" width="2784" height="2658" fill="#FFFFFF" fill-opacity="1"/><g clip-path="url(#clip1)"><path d="M3424.9 473.115C4015.84 473.115 4494.9 952.173 4494.9 1543.12 4494.9 2134.07 4015.84 2613.13 3424.9 2613.13 2961.34 2613.13 2550.51 2314.64 2407.26 1873.77L3424.9 1543.12Z" stroke="#FFFFFF" stroke-width="6.875" stroke-linecap="butt" stroke-linejoin="round" stroke-miterlimit="10" stroke-opacity="1" fill="#1B7857" fill-rule="evenodd" fill-opacity="1"/></g><g clip-path="url(#clip2)"><path d="M2407.26 1873.77C2224.65 1311.75 2532.22 708.099 3094.25 525.486L3424.9 1543.12Z" stroke="#FFFFFF" stroke-width="6.875" stroke-linecap="butt" stroke-linejoin="round" stroke-miterlimit="10" stroke-opacity="1" fill="#249769" fill-rule="evenodd" fill-opacity="1"/></g><g clip-path="url(#clip3)"><path d="M3094.24 525.485C3201.03 490.788 3312.61 473.115 3424.89 473.115L3424.9 1543.12Z" stroke="#FFFFFF" stroke-width="6.875" stroke-linecap="butt" stroke-linejoin="round" stroke-miterlimit="10" stroke-opacity="1" fill="#6EE8B7" fill-rule="evenodd" fill-opacity="1"/></g><g clip-path="url(#clip4)"><text fill="#595959" fill-opacity="1" font-family="Source Sans Pro,Source Sans Pro_MSFontService,sans-serif" font-style="normal" font-variant="normal" font-weight="700" font-stretch="normal" font-size="147" text-anchor="start" direction="ltr" writing-mode="lr-tb" unicode-bidi="normal" text-decoration="none" transform="matrix(1 0 0 1 2390.12 375)">Gewichtung der Anlagenklassen</text></g><g clip-path="url(#clip5)"><rect x="2238.5" y="2714.5" width="61.9998" height="61.9998" stroke="#FFFFFF" stroke-width="6.875" stroke-linecap="butt" stroke-linejoin="round" stroke-miterlimit="10" stroke-opacity="1" fill="#1B7857" fill-opacity="1"/></g><g clip-path="url(#clip6)"><text fill="#595959" fill-opacity="1" font-family="Source Sans Pro,Source Sans Pro_MSFontService,sans-serif" font-style="normal" font-variant="normal" font-weight="400" font-stretch="normal" font-size="110" text-anchor="start" direction="ltr" writing-mode="lr-tb" unicode-bidi="normal" text-decoration="none" transform="matrix(1 0 0 1 2330.38 2783)">Aktienfonds</text></g><g clip-path="url(#clip7)"><rect x="2947.5" y="2714.5" width="63" height="61.9998" stroke="#FFFFFF" stroke-width="6.875" stroke-linecap="butt" stroke-linejoin="round" stroke-miterlimit="10" stroke-opacity="1" fill="#249769" fill-opacity="1"/></g><g clip-path="url(#clip8)"><text fill="#595959" fill-opacity="1" font-family="Source Sans Pro,Source Sans Pro_MSFontService,sans-serif" font-style="normal" font-variant="normal" font-weight="400" font-stretch="normal" font-size="110" text-anchor="start" direction="ltr" writing-mode="lr-tb" unicode-bidi="normal" text-decoration="none" transform="matrix(1 0 0 1 3039.46 2783)">Anleihenfonds</text></g><g clip-path="url(#clip9)"><rect x="3767.5" y="2714.5" width="63" height="61.9998" stroke="#FFFFFF" stroke-width="6.875" stroke-linecap="butt" stroke-linejoin="round" stroke-miterlimit="10" stroke-opacity="1" fill="#6EE8B7" fill-opacity="1"/></g><g clip-path="url(#clip10)"><text fill="#595959" fill-opacity="1" font-family="Source Sans Pro,Source Sans Pro_MSFontService,sans-serif" font-style="normal" font-variant="normal" font-weight="400" font-stretch="normal" font-size="110" text-anchor="start" direction="ltr" writing-mode="lr-tb" unicode-bidi="normal" text-decoration="none" transform="matrix(1 0 0 1 3859.54 2783)">Immobilienfonds</text></g></g></svg>