<svg width="3090" height="2736" xmlns="http://www.w3.org/2000/svg" xmlns:xlink="http://www.w3.org/1999/xlink" overflow="hidden"><defs><clipPath id="clip0"><rect x="4830" y="151" width="3090" height="2736"/></clipPath><clipPath id="clip1"><rect x="4833" y="155" width="3083" height="2729"/></clipPath><clipPath id="clip2"><rect x="4833" y="155" width="3083" height="2729"/></clipPath><clipPath id="clip3"><rect x="4833" y="155" width="3083" height="2729"/></clipPath><clipPath id="clip4"><rect x="4833" y="155" width="3083" height="2729"/></clipPath><clipPath id="clip5"><rect x="4833" y="155" width="3083" height="2729"/></clipPath><clipPath id="clip6"><rect x="4833" y="155" width="3083" height="2729"/></clipPath><clipPath id="clip7"><rect x="4833" y="155" width="3083" height="2729"/></clipPath><clipPath id="clip8"><rect x="4833" y="155" width="3083" height="2729"/></clipPath><clipPath id="clip9"><rect x="4833" y="155" width="3083" height="2729"/></clipPath><clipPath id="clip10"><rect x="4833" y="155" width="3083" height="2729"/></clipPath><clipPath id="clip11"><rect x="4833" y="155" width="3083" height="2729"/></clipPath><clipPath id="clip12"><rect x="4833" y="155" width="3083" height="2729"/></clipPath><clipPath id="clip13"><rect x="4833" y="155" width="3083" height="2729"/></clipPath><clipPath id="clip14"><rect x="4833" y="155" width="3083" height="2729"/></clipPath><clipPath id="clip15"><rect x="4833" y="155" width="3083" height="2729"/></clipPath><clipPath id="clip16"><rect x="4833" y="155" width="3083" height="2729"/></clipPath><clipPath id="clip17"><rect x="4833" y="155" width="3083" height="2729"/></clipPath></defs><g clip-path="url(#clip0)" transform="translate(-4830 -151)"><rect x="4833" y="156" width="3084" height="2728" fill="#FFFFFF" fill-opacity="1"/><g clip-path="url(#clip1)"><path d="M5871.3 763.3C6345.15 763.3 6729.29 1147.43 6729.29 1621.29 6729.29 2095.14 6345.15 2479.27 5871.3 2479.27L5871.3 1621.29Z" stroke="#FFFFFF" stroke-width="6.875" stroke-linecap="butt" stroke-linejoin="round" stroke-miterlimit="10" stroke-opacity="1" fill="#1B7857" fill-rule="evenodd" fill-opacity="1"/></g><g clip-path="url(#clip2)"><path d="M5871.3 2479.27C5499.6 2479.27 5170.17 2239.93 5055.31 1886.42L5871.3 1621.29Z" stroke="#FFFFFF" stroke-width="6.875" stroke-linecap="butt" stroke-linejoin="round" stroke-miterlimit="10" stroke-opacity="1" fill="#249769" fill-rule="evenodd" fill-opacity="1"/></g><g clip-path="url(#clip3)"><path d="M5055.31 1886.42C4970.44 1625.22 5015.74 1339.17 5177.17 1116.98L5871.3 1621.29Z" stroke="#FFFFFF" stroke-width="6.875" stroke-linecap="butt" stroke-linejoin="round" stroke-miterlimit="10" stroke-opacity="1" fill="#6EE8B7" fill-rule="evenodd" fill-opacity="1"/></g><g clip-path="url(#clip4)"><path d="M5177.17 1116.98C5338.61 894.783 5596.65 763.301 5871.3 763.301L5871.3 1621.29Z" stroke="#FFFFFF" stroke-width="6.875" stroke-linecap="butt" stroke-linejoin="round" stroke-miterlimit="10" stroke-opacity="1" fill="#D1FBE6" fill-rule="evenodd" fill-opacity="1"/></g><g clip-path="url(#clip5)"><text fill="#404040" fill-opacity="1" font-family="Source Sans Pro,Source Sans Pro_MSFontService,sans-serif" font-style="normal" font-variant="normal" font-weight="400" font-stretch="normal" font-size="110" text-anchor="start" direction="ltr" writing-mode="lr-tb" unicode-bidi="normal" text-decoration="none" transform="matrix(1 0 0 1 6500.31 1659)">50%</text></g><g clip-path="url(#clip6)"><text fill="#404040" fill-opacity="1" font-family="Source Sans Pro,Source Sans Pro_MSFontService,sans-serif" font-style="normal" font-variant="normal" font-weight="400" font-stretch="normal" font-size="110" text-anchor="start" direction="ltr" writing-mode="lr-tb" unicode-bidi="normal" text-decoration="none" transform="matrix(1 0 0 1 5341.88 2244)">20%</text></g><g clip-path="url(#clip7)"><text fill="#404040" fill-opacity="1" font-family="Source Sans Pro,Source Sans Pro_MSFontService,sans-serif" font-style="normal" font-variant="normal" font-weight="400" font-stretch="normal" font-size="110" text-anchor="start" direction="ltr" writing-mode="lr-tb" unicode-bidi="normal" text-decoration="none" transform="matrix(1 0 0 1 5049.69 1556)">15%</text></g><g clip-path="url(#clip8)"><text fill="#404040" fill-opacity="1" font-family="Source Sans Pro,Source Sans Pro_MSFontService,sans-serif" font-style="normal" font-variant="normal" font-weight="400" font-stretch="normal" font-size="110" text-anchor="start" direction="ltr" writing-mode="lr-tb" unicode-bidi="normal" text-decoration="none" transform="matrix(1 0 0 1 5445 1006)">15%</text></g><g clip-path="url(#clip9)"><text fill="#595959" fill-opacity="1" font-family="Source Sans Pro,Source Sans Pro_MSFontService,sans-serif" font-style="normal" font-variant="normal" font-weight="400" font-stretch="normal" font-size="128" text-anchor="start" direction="ltr" writing-mode="lr-tb" unicode-bidi="normal" text-decoration="none" transform="matrix(1 0 0 1 5638.34 316)">Geographische Gewichtung</text></g><g clip-path="url(#clip10)"><rect x="6950.5" y="1343.5" width="63" height="62.0002" stroke="#FFFFFF" stroke-width="6.875" stroke-linecap="butt" stroke-linejoin="round" stroke-miterlimit="10" stroke-opacity="1" fill="#1B7857" fill-opacity="1"/></g><g clip-path="url(#clip11)"><text fill="#595959" fill-opacity="1" font-family="Source Sans Pro,Source Sans Pro_MSFontService,sans-serif" font-style="normal" font-variant="normal" font-weight="400" font-stretch="normal" font-size="110" text-anchor="start" direction="ltr" writing-mode="lr-tb" unicode-bidi="normal" text-decoration="none" transform="matrix(1 0 0 1 7042.5 1412)">USA</text></g><g clip-path="url(#clip12)"><rect x="6950.5" y="1507.5" width="63" height="63.0002" stroke="#FFFFFF" stroke-width="6.875" stroke-linecap="butt" stroke-linejoin="round" stroke-miterlimit="10" stroke-opacity="1" fill="#249769" fill-opacity="1"/></g><g clip-path="url(#clip13)"><text fill="#595959" fill-opacity="1" font-family="Source Sans Pro,Source Sans Pro_MSFontService,sans-serif" font-style="normal" font-variant="normal" font-weight="400" font-stretch="normal" font-size="110" text-anchor="start" direction="ltr" writing-mode="lr-tb" unicode-bidi="normal" text-decoration="none" transform="matrix(1 0 0 1 7042.5 1576)">Europa</text></g><g clip-path="url(#clip14)"><rect x="6950.5" y="1672.5" width="63" height="62.0002" stroke="#FFFFFF" stroke-width="6.875" stroke-linecap="butt" stroke-linejoin="round" stroke-miterlimit="10" stroke-opacity="1" fill="#6EE8B7" fill-opacity="1"/></g><g clip-path="url(#clip15)"><text fill="#595959" fill-opacity="1" font-family="Source Sans Pro,Source Sans Pro_MSFontService,sans-serif" font-style="normal" font-variant="normal" font-weight="400" font-stretch="normal" font-size="110" text-anchor="start" direction="ltr" writing-mode="lr-tb" unicode-bidi="normal" text-decoration="none" transform="matrix(1 0 0 1 7042.5 1740)">Asien</text></g><g clip-path="url(#clip16)"><rect x="6950.5" y="1836.5" width="63" height="61.9999" stroke="#FFFFFF" stroke-width="6.875" stroke-linecap="butt" stroke-linejoin="round" stroke-miterlimit="10" stroke-opacity="1" fill="#D1FBE6" fill-opacity="1"/></g><g clip-path="url(#clip17)"><text fill="#595959" fill-opacity="1" font-family="Source Sans Pro,Source Sans Pro_MSFontService,sans-serif" font-style="normal" font-variant="normal" font-weight="400" font-stretch="normal" font-size="110" text-anchor="start" direction="ltr" writing-mode="lr-tb" unicode-bidi="normal" text-decoration="none" transform="matrix(1 0 0 1 7042.5 1905)">Emerging Markets</text></g></g></svg>