<svg width="2860" height="2736" xmlns="http://www.w3.org/2000/svg" xmlns:xlink="http://www.w3.org/1999/xlink" overflow="hidden"><defs><clipPath id="clip0"><rect x="2021" y="151" width="2860" height="2736"/></clipPath><clipPath id="clip1"><rect x="2023" y="155" width="2858" height="2729"/></clipPath><clipPath id="clip2"><rect x="2023" y="155" width="2858" height="2729"/></clipPath><clipPath id="clip3"><rect x="2023" y="155" width="2858" height="2729"/></clipPath><clipPath id="clip4"><rect x="2023" y="155" width="2858" height="2729"/></clipPath><clipPath id="clip5"><rect x="2023" y="155" width="2858" height="2729"/></clipPath><clipPath id="clip6"><rect x="2023" y="155" width="2858" height="2729"/></clipPath><clipPath id="clip7"><rect x="2023" y="155" width="2858" height="2729"/></clipPath><clipPath id="clip8"><rect x="2023" y="155" width="2858" height="2729"/></clipPath><clipPath id="clip9"><rect x="2023" y="155" width="2858" height="2729"/></clipPath><clipPath id="clip10"><rect x="2023" y="155" width="2858" height="2729"/></clipPath><clipPath id="clip11"><rect x="2023" y="155" width="2858" height="2729"/></clipPath><clipPath id="clip12"><rect x="2023" y="155" width="2858" height="2729"/></clipPath><clipPath id="clip13"><rect x="2023" y="155" width="2858" height="2729"/></clipPath></defs><g clip-path="url(#clip0)" transform="translate(-2021 -151)"><rect x="2024" y="156" width="2857" height="2728" fill="#FFFFFF" fill-opacity="1"/><g clip-path="url(#clip1)"><path d="M2968.81 844.592C3397.77 844.592 3745.51 1192.33 3745.51 1621.29 3745.51 2050.24 3397.77 2397.98 2968.81 2397.98 2632.33 2397.98 2334.11 2181.31 2230.13 1861.3L2968.81 1621.29Z" stroke="#FFFFFF" stroke-width="6.875" stroke-linecap="butt" stroke-linejoin="round" stroke-miterlimit="10" stroke-opacity="1" fill="#1B7857" fill-rule="evenodd" fill-opacity="1"/></g><g clip-path="url(#clip2)"><path d="M2230.13 1861.3C2097.58 1453.34 2320.84 1015.16 2728.8 882.607L2968.81 1621.29Z" stroke="#FFFFFF" stroke-width="6.875" stroke-linecap="butt" stroke-linejoin="round" stroke-miterlimit="10" stroke-opacity="1" fill="#249769" fill-rule="evenodd" fill-opacity="1"/></g><g clip-path="url(#clip3)"><path d="M2728.8 882.607C2806.31 857.421 2887.31 844.593 2968.81 844.593L2968.81 1621.29Z" stroke="#FFFFFF" stroke-width="6.875" stroke-linecap="butt" stroke-linejoin="round" stroke-miterlimit="10" stroke-opacity="1" fill="#6EE8B7" fill-rule="evenodd" fill-opacity="1"/></g><g clip-path="url(#clip4)"><text fill="#000000" fill-opacity="1" font-family="Source Sans Pro,Source Sans Pro_MSFontService,sans-serif" font-style="normal" font-variant="normal" font-weight="400" font-stretch="normal" font-size="110" text-anchor="start" direction="ltr" writing-mode="lr-tb" unicode-bidi="normal" text-decoration="none" transform="matrix(1 0 0 1 3384.79 2031)">70%</text></g><g clip-path="url(#clip5)"><text fill="#000000" fill-opacity="1" font-family="Source Sans Pro,Source Sans Pro_MSFontService,sans-serif" font-style="normal" font-variant="normal" font-weight="400" font-stretch="normal" font-size="110" text-anchor="start" direction="ltr" writing-mode="lr-tb" unicode-bidi="normal" text-decoration="none" transform="matrix(1 0 0 1 2291.67 1381)">25%</text></g><g clip-path="url(#clip6)"><text fill="#000000" fill-opacity="1" font-family="Source Sans Pro,Source Sans Pro_MSFontService,sans-serif" font-style="normal" font-variant="normal" font-weight="400" font-stretch="normal" font-size="110" text-anchor="start" direction="ltr" writing-mode="lr-tb" unicode-bidi="normal" text-decoration="none" transform="matrix(1 0 0 1 2796.98 989)">5%</text></g><g clip-path="url(#clip7)"><text fill="#595959" fill-opacity="1" font-family="Source Sans Pro,Source Sans Pro_MSFontService,sans-serif" font-style="normal" font-variant="normal" font-weight="400" font-stretch="normal" font-size="128" text-anchor="start" direction="ltr" writing-mode="lr-tb" unicode-bidi="normal" text-decoration="none" transform="matrix(1 0 0 1 2631.53 316)">Gewichtung der Anlageklassen</text></g><g clip-path="url(#clip8)"><rect x="3955.5" y="1425.5" width="61.9998" height="62.9999" stroke="#FFFFFF" stroke-width="6.875" stroke-linecap="butt" stroke-linejoin="round" stroke-miterlimit="10" stroke-opacity="1" fill="#1B7857" fill-opacity="1"/></g><g clip-path="url(#clip9)"><text fill="#595959" fill-opacity="1" font-family="Source Sans Pro,Source Sans Pro_MSFontService,sans-serif" font-style="normal" font-variant="normal" font-weight="400" font-stretch="normal" font-size="110" text-anchor="start" direction="ltr" writing-mode="lr-tb" unicode-bidi="normal" text-decoration="none" transform="matrix(1 0 0 1 4047.1 1494)">Aktienfonds</text></g><g clip-path="url(#clip10)"><rect x="3955.5" y="1590.5" width="61.9998" height="61.9999" stroke="#FFFFFF" stroke-width="6.875" stroke-linecap="butt" stroke-linejoin="round" stroke-miterlimit="10" stroke-opacity="1" fill="#249769" fill-opacity="1"/></g><g clip-path="url(#clip11)"><text fill="#595959" fill-opacity="1" font-family="Source Sans Pro,Source Sans Pro_MSFontService,sans-serif" font-style="normal" font-variant="normal" font-weight="400" font-stretch="normal" font-size="110" text-anchor="start" direction="ltr" writing-mode="lr-tb" unicode-bidi="normal" text-decoration="none" transform="matrix(1 0 0 1 4047.1 1658)">Anleihenfonds</text></g><g clip-path="url(#clip12)"><rect x="3955.5" y="1754.5" width="61.9998" height="61.9999" stroke="#FFFFFF" stroke-width="6.875" stroke-linecap="butt" stroke-linejoin="round" stroke-miterlimit="10" stroke-opacity="1" fill="#6EE8B7" fill-opacity="1"/></g><g clip-path="url(#clip13)"><text fill="#595959" fill-opacity="1" font-family="Source Sans Pro,Source Sans Pro_MSFontService,sans-serif" font-style="normal" font-variant="normal" font-weight="400" font-stretch="normal" font-size="110" text-anchor="start" direction="ltr" writing-mode="lr-tb" unicode-bidi="normal" text-decoration="none" transform="matrix(1 0 0 1 4047.1 1823)">Immobilienfonds</text></g></g></svg>